<svg width="17" height="17" viewBox="0 0 17 17" fill="none" xmlns="http://www.w3.org/2000/svg">
<path fill-rule="evenodd" clip-rule="evenodd" d="M11.6309 7.6538C11.6309 8.24474 11.5145 8.82991 11.2883 9.37587C11.0622 9.92184 10.7307 10.4179 10.3129 10.8358C9.89496 11.2536 9.39889 11.5851 8.85292 11.8113C8.30696 12.0374 7.7218 12.1538 7.13085 12.1538C6.5399 12.1538 5.95474 12.0374 5.40877 11.8113C4.86281 11.5851 4.36673 11.2536 3.94887 10.8358C3.531 10.4179 3.19954 9.92184 2.97339 9.37587C2.74724 8.82991 2.63085 8.24474 2.63085 7.6538C2.63085 6.46032 3.10495 5.31573 3.94887 4.47182C4.79278 3.6279 5.93737 3.1538 7.13085 3.1538C8.32432 3.1538 9.46891 3.6279 10.3129 4.47182C11.1568 5.31573 11.6309 6.46032 11.6309 7.6538ZM10.8109 12.3938C9.60523 13.3298 8.08822 13.7711 6.56865 13.6279C5.04908 13.4848 3.64119 12.7679 2.6316 11.6232C1.622 10.4785 1.0866 8.99209 1.13438 7.46655C1.18217 5.941 1.80955 4.491 2.8888 3.41175C3.96806 2.3325 5.41805 1.70512 6.9436 1.65733C8.46915 1.60955 9.95556 2.14495 11.1003 3.15455C12.245 4.16414 12.9619 5.57203 13.105 7.0916C13.2482 8.61116 12.8069 10.1282 11.8709 11.3338L14.9109 14.3738C14.9846 14.4425 15.0437 14.5253 15.0847 14.6173C15.1257 14.7093 15.1477 14.8086 15.1495 14.9093C15.1513 15.01 15.1327 15.11 15.095 15.2034C15.0573 15.2968 15.0011 15.3816 14.9299 15.4528C14.8587 15.5241 14.7739 15.5802 14.6805 15.6179C14.5871 15.6556 14.4871 15.6742 14.3864 15.6724C14.2857 15.6706 14.1863 15.6486 14.0944 15.6076C14.0024 15.5666 13.9196 15.5075 13.8509 15.4338L10.8109 12.3938Z" fill="#1F2A33"/>
</svg>
